# xmcd
#
# Track frame offsets:
#	150
#	17920
#	30255
#	47267
#	60800
#	72222
#	84385
#	100295
#	114005
#	125055
#
# Disc length: 1863 seconds
#
# Revision: 0
# Processed by: cddbd v1.5.1PL0 Copyright (c) Steve Scherf et al.
# Submitted via: EasyCDDAExtractor 4.6.9.1
#
DISCID=6c07450a
DTITLE=The Osborne Brothers - Detroit To Wheeling (Third In A Four Part Series
DTITLE=)
DYEAR=2003
DGENRE=Bluegrass
TTITLE0=Shady Lane (inst.)
TTITLE1=Down In The Willow Garden
TTITLE2=Love And Wealth
TTITLE3=Heaven (Happy Home Above)
TTITLE4=Down Where The River Bends
TTITLE5=Foggy Mountain Breakdown
TTITLE6=The Hills Of Roan County
TTITLE7=Here Today And Gone Tomorrow
TTITLE8=Rock Of Ages
TTITLE9=We'll Meet Again Sweetheart
EXTD=
EXTT0=
EXTT1=
EXTT2=
EXTT3=
EXTT4=
EXTT5=
EXTT6=
EXTT7=
EXTT8=
EXTT9=
PLAYORDER=
